<svg xmlns="http://www.w3.org/2000/svg">
    <defs>
        <symbol id="logo" viewBox="0 0 39 32">
            <path fill="#000"
                d="M33.985 4.538h-29.033c-1.275 0-2.31 0.85-2.31 1.897v15.731c0 1.044 1.035 1.897 2.31 1.897h29.033c1.275 0 2.31-0.85 2.31-1.897v-15.734c0-1.044-1.039-1.894-2.31-1.894zM34.316 22.166c0 0.15-0.148 0.272-0.331 0.272h-29.033c-0.183 0-0.331-0.122-0.331-0.272v-15.734c0-0.15 0.148-0.272 0.331-0.272h29.033c0.183 0 0.331 0.122 0.331 0.272v15.734zM27.377 25.747h-15.833c-0.548 0-0.99 0.363-0.99 0.813s0.441 0.812 0.99 0.812h15.837c0.548 0 0.99-0.362 0.99-0.812s-0.445-0.813-0.993-0.813zM24.211 13.722l-6.6-3.25c-0.305-0.15-0.685-0.153-0.997-0.009-0.308 0.144-0.502 0.416-0.502 0.706v6.5c0 0.294 0.19 0.563 0.502 0.706 0.152 0.072 0.32 0.106 0.487 0.106 0.175 0 0.354-0.041 0.51-0.116l6.6-3.25c0.297-0.147 0.48-0.412 0.48-0.697s-0.183-0.55-0.48-0.697z">
            </path>
        </symbol>
        <symbol id="search-btn" viewBox="0 0 36 32">
            <path fill="none" stroke="#000" stroke-linejoin="round" stroke-linecap="butt" stroke-miterlimit="4"
                stroke-width="1.92"
                d="M15.32 24.853c7.754 0 14.040-5.277 14.040-11.787s-6.286-11.787-14.040-11.787-14.040 5.277-14.040 11.787c0 6.51 6.286 11.787 14.040 11.787z">
            </path>
            <path stroke-linejoin="miter" stroke-linecap="butt" stroke-miterlimit="4" stroke-width="1"
                d="M34.116 30.73l-10.302-8.649 1.030-0.865 10.302 8.649-1.030 0.865zM34.699 31.076l0.901-0.756c0.028 0.063 0.040 0.126 0.040 0.187 0 0.131-0.059 0.276-0.202 0.396-0.197 0.165-0.481 0.223-0.739 0.174z">
            </path>
        </symbol>
        <symbol id="checkmark-yes" viewBox="0 0 36 32">
            <path
                d="M24.588 9.070c-0.535-0.28-1.217-0.11-1.525 0.36l-7.139 11.080-3.994-3.3c-0.422-0.4-1.129-0.42-1.578-0.040-0.45 0.37-0.473 1.010-0.051 1.41l5.104 4.22c0.421 0.4 1.127 0.42 1.577 0.040 0.136-0.11 8.015-12.41 8.015-12.41 0.308-0.47 0.125-1.090-0.409-1.36zM17.86 30c-8.631 0-15.628-6.27-15.628-14s6.997-14 15.628-14c8.631 0 15.628 6.27 15.628 14s-6.997 14-15.628 14zM17.86 0c-9.863 0-17.86 7.16-17.86 16s7.997 16 17.86 16 17.86-7.16 17.86-16c0-8.84-7.997-16-17.86-16z">
            </path>
        </symbol>
        <symbol id="checkmark-no" viewBox="0 0 37 32">
            <path
                d="M28.616 16.506c1.7 0 3.077 1.194 3.077 2.667v1.339h0.748c1.274 0 2.308 0.895 2.308 2v5.333c0 1.105-1.033 2-2.308 2h-7.692c-1.274 0-2.308-0.895-2.308-2v-5.333c0-1.105 1.033-2 2.308-2h0.79v-1.339c0-1.473 1.378-2.667 3.077-2.667zM17.846 1.846c8.497 0 15.385 5.97 15.385 13.333 0 0.887-0.1 1.754-0.291 2.593-0.655-1.518-2.344-2.599-4.325-2.599-2.458 0-4.467 1.665-4.608 3.765l-0.008 0.304c-1.766 0.302-3.098 1.651-3.098 3.27v5.333c0 0.135 0.009 0.268 0.027 0.399-0.996 0.176-2.027 0.268-3.083 0.268-8.497 0-15.385-5.97-15.385-13.333s6.888-13.333 15.385-13.333zM28.615 24.179c-0.637 0-1.154 0.448-1.154 1s0.517 1 1.154 1 1.154-0.448 1.154-1c0-0.552-0.517-1-1.154-1zM28.616 17.84c-0.789 0-1.439 0.515-1.528 1.178l-0.010 0.155v1.339h3.077v-1.339c0-0.737-0.689-1.334-1.539-1.334zM22.799 11.139l-6.876 5.959-3.030-2.626c-0.451-0.391-1.181-0.391-1.632 0s-0.451 1.024 0 1.414l3.846 3.333c0.451 0.391 1.181 0.391 1.632 0l7.692-6.667c0.451-0.39 0.451-1.024 0-1.414s-1.181-0.391-1.632 0z">
            </path>
        </symbol>
    </defs>
</svg>